# xmcd
#
# Track frame offsets: 
#        150
#        18085
#        43435
#        62350
#
# Disc length: 1117 seconds
#
# Revision: 0
# Processed by: cddbd v1.5.2PL0 Copyright (c) Steve Scherf et al.
# Submitted via: ExactAudioCopyFreeDBPlugin 1.0
#
DISCID=2a045b04
DTITLE=Joe - The One For Me [CDS)
DYEAR=1994
DGENRE=R&B
TTITLE0=The One For Me (Radio Edit)
TTITLE1=Joe feat. Darkman - I'm In Luve (Ghetto Lab Mix)
TTITLE2=The One For Me (Club Mix)
TTITLE3=Do Me
EXTD=
EXTT0=
EXTT1=
EXTT2=
EXTT3=
PLAYORDER=
